<svg width="14" height="14" viewBox="0 0 14 14" fill="none" xmlns="http://www.w3.org/2000/svg">
<g clip-path="url(#clip0_20_3098)">
<path d="M12.8333 7.00008C12.8333 10.2217 10.2216 12.8334 6.99996 12.8334C3.7783 12.8334 1.16663 10.2217 1.16663 7.00008C1.16663 3.77842 3.7783 1.16675 6.99996 1.16675C10.2216 1.16675 12.8333 3.77842 12.8333 7.00008Z" stroke="#4B4B50" stroke-opacity="0.6"/>
<path d="M8.58091 5.86905C8.5231 5.42417 8.01227 4.70537 7.09376 4.70536C6.02649 4.70534 5.57742 5.29643 5.48629 5.59198C5.34414 5.9873 5.37257 6.80005 6.62353 6.88866C8.18727 6.9995 8.81372 7.18406 8.73403 8.14108C8.65429 9.09804 7.78262 9.30483 7.09376 9.28261C6.40484 9.2605 5.27775 8.94404 5.23401 8.09284M6.98444 4.08228V4.70747M6.98444 9.27689V9.91558" stroke="#4B4B50" stroke-opacity="0.6" stroke-linecap="round"/>
</g>
<defs>
<clipPath id="clip0_20_3098">
<rect width="14" height="14" fill="white"/>
</clipPath>
</defs>
</svg>
