<svg width="16" height="16" viewBox="0 0 16 16" fill="none" xmlns="http://www.w3.org/2000/svg">
<path d="M2.66699 9.3335H4.26354C4.45964 9.3335 4.65305 9.3777 4.82844 9.46256L6.18976 10.1212C6.36515 10.2061 6.55856 10.2502 6.75466 10.2502H7.44973C8.12199 10.2502 8.66699 10.7776 8.66699 11.4282C8.66699 11.4544 8.64899 11.4776 8.62286 11.4848L6.92893 11.9532C6.62504 12.0372 6.29966 12.0079 6.01699 11.8711L4.56173 11.167" stroke="black" stroke-linecap="round" stroke-linejoin="round"/>
<path d="M8.66699 11L11.7289 10.0593C12.2717 9.89015 12.8584 10.0907 13.1984 10.5616C13.4443 10.902 13.3441 11.3895 12.986 11.5962L7.97559 14.487C7.65693 14.6709 7.28093 14.7158 6.93046 14.6118L2.66699 13.3466" stroke="black" stroke-linecap="round" stroke-linejoin="round"/>
<path d="M10 8.00016H8.66667C7.4096 8.00016 6.78107 8.00016 6.39053 7.60963C6 7.2191 6 6.59058 6 5.3335V4.00016C6 2.74308 6 2.11454 6.39053 1.72402C6.78107 1.3335 7.4096 1.3335 8.66667 1.3335H10C11.2571 1.3335 11.8856 1.3335 12.2761 1.72402C12.6667 2.11454 12.6667 2.74308 12.6667 4.00016V5.3335C12.6667 6.59058 12.6667 7.2191 12.2761 7.60963C11.8856 8.00016 11.2571 8.00016 10 8.00016Z" stroke="black" stroke-linecap="round" stroke-linejoin="round"/>
<path d="M8.66699 3.3335H10.0003" stroke="black" stroke-linecap="round" stroke-linejoin="round"/>
</svg>
