<svg width="20" height="20" viewBox="0 0 20 20" fill="none" xmlns="http://www.w3.org/2000/svg">
<path d="M12.0832 10.0008C12.0832 11.1514 11.1504 12.0842 9.99982 12.0842C8.84924 12.0842 7.9165 11.1514 7.9165 10.0008C7.9165 8.85025 8.84924 7.91748 9.99982 7.91748C11.1504 7.91748 12.0832 8.85025 12.0832 10.0008Z" stroke="#4FD1C5" stroke-width="1.25" stroke-linecap="round" stroke-linejoin="round"/>
<path d="M13.3332 4.16748C15.3993 4.16748 16.8251 4.48765 17.6106 4.73108C18.0628 4.87124 18.3332 5.29989 18.3332 5.77336V13.9027C18.3332 14.832 17.3098 15.5312 16.3967 15.3587C15.6133 15.2108 14.5921 15.092 13.3332 15.092C9.37409 15.092 8.4245 16.5967 2.6205 15.3168C2.06038 15.1933 1.6665 14.6896 1.6665 14.116V5.76845C1.6665 4.95523 2.43383 4.3622 3.23149 4.52048C8.49709 5.56536 9.51725 4.16748 13.3332 4.16748Z" stroke="#4FD1C5" stroke-width="1.25" stroke-linecap="round" stroke-linejoin="round"/>
<path d="M1.6665 7.50083C3.29261 7.50083 4.75386 6.17173 4.94068 4.79597M15.4169 4.58417C15.4169 6.28387 16.8878 7.89166 18.3332 7.89166M18.3332 12.5009C16.7506 12.5009 15.2166 13.5927 15.0848 15.0828M5.00025 15.4143C5.00025 13.5733 3.50786 12.0809 1.66691 12.0809" stroke="#4FD1C5" stroke-width="1.25" stroke-linecap="round" stroke-linejoin="round"/>
</svg>
