<svg width="20" height="20" viewBox="0 0 20 20" fill="none" xmlns="http://www.w3.org/2000/svg">
<path d="M2.10843 11.995C1.93122 13.1226 2.7235 13.9052 3.69354 14.2952C7.41251 15.7905 12.5878 15.7905 16.3067 14.2952C17.2768 13.9052 18.0691 13.1226 17.8919 11.995C17.783 11.3021 17.2445 10.7251 16.8455 10.1617C16.3229 9.4146 16.271 8.59977 16.2709 7.73286C16.2709 4.3826 13.4634 1.66669 10.0002 1.66669C6.53694 1.66669 3.72944 4.3826 3.72944 7.73286C3.72936 8.59977 3.67743 9.4146 3.15484 10.1617C2.75586 10.7251 2.21734 11.3021 2.10843 11.995Z" stroke="#1E1E24" stroke-width="1.25" stroke-linecap="round" stroke-linejoin="round"/>
<path d="M7.5 17.5C8.16344 18.0183 9.03958 18.3333 10 18.3333C10.9604 18.3333 11.8366 18.0183 12.5 17.5" stroke="#1E1E24" stroke-width="1.25" stroke-linecap="round" stroke-linejoin="round"/>
</svg>
