<svg width="20" height="20" viewBox="0 0 20 20" fill="none" xmlns="http://www.w3.org/2000/svg">
<path d="M17.9166 9.99992C17.9166 14.3722 14.3722 17.9166 9.99998 17.9166C5.62776 17.9166 2.08331 14.3722 2.08331 9.99992C2.08331 5.62766 5.62776 2.08325 9.99998 2.08325C13.2463 2.08325 16.0363 4.03724 17.2579 6.83325M17.9166 4.58325L17.5208 7.22909L15 6.66659" stroke="#4FD1C5" stroke-width="1.15"/>
<path d="M8.33331 9.16667V7.91667C8.33331 6.99619 9.07948 6.25 9.99998 6.25C10.9205 6.25 11.6666 6.99619 11.6666 7.91667V9.16667M9.37498 13.75H10.625C11.6023 13.75 12.091 13.75 12.4276 13.4917C12.5142 13.4252 12.5918 13.3476 12.6583 13.2609C12.9166 12.9243 12.9166 12.4357 12.9166 11.4583C12.9166 10.481 12.9166 9.99233 12.6583 9.65575C12.5918 9.56908 12.5142 9.4915 12.4276 9.425C12.091 9.16667 11.6023 9.16667 10.625 9.16667H9.37498C8.39765 9.16667 7.909 9.16667 7.57236 9.425C7.4857 9.4915 7.40812 9.56908 7.34162 9.65575C7.08331 9.99233 7.08331 10.481 7.08331 11.4583C7.08331 12.4357 7.08331 12.9243 7.34162 13.2609C7.40812 13.3476 7.4857 13.4252 7.57236 13.4917C7.909 13.75 8.39765 13.75 9.37498 13.75Z" stroke="#4FD1C5" stroke-width="1.15"/>
</svg>
