<svg width="16" height="16" viewBox="0 0 16 16" fill="none" xmlns="http://www.w3.org/2000/svg">
<path d="M8.66536 4.3335H7.33456C5.42127 4.3335 4.1313 6.37956 4.88498 8.21883C4.98997 8.4751 5.23085 8.64116 5.49737 8.64116H5.96603C6.12399 8.64116 6.26169 8.75363 6.3 8.9139L6.90336 11.438C7.02916 11.9643 7.48129 12.3335 7.99996 12.3335C8.51863 12.3335 8.97076 11.9643 9.09656 11.438L9.69989 8.9139C9.73823 8.75363 9.87596 8.64116 10.0339 8.64116H10.5026C10.7691 8.64116 11.01 8.4751 11.115 8.21883C11.8686 6.37956 10.5786 4.3335 8.66536 4.3335Z" stroke="#1E1E24"/>
<path d="M9.66671 2.66667C9.66671 3.58714 8.92051 4.33333 8.00004 4.33333C7.07957 4.33333 6.33337 3.58714 6.33337 2.66667C6.33337 1.74619 7.07957 1 8.00004 1C8.92051 1 9.66671 1.74619 9.66671 2.66667Z" stroke="#1E1E24"/>
<path d="M4.66667 11H4" stroke="#1E1E24" stroke-linecap="round" stroke-linejoin="round"/>
<path d="M8 14.3335V15.0002" stroke="#1E1E24" stroke-linecap="round" stroke-linejoin="round"/>
<path d="M12 11H11.3334" stroke="#1E1E24" stroke-linecap="round" stroke-linejoin="round"/>
</svg>
