<svg width="20" height="20" viewBox="0 0 20 20" fill="none" xmlns="http://www.w3.org/2000/svg">
<path d="M6.24998 2.91675C4.95348 2.95564 4.18049 3.09995 3.64562 3.63531C2.91339 4.36822 2.91339 5.54783 2.91339 7.90705V13.3287C2.91339 15.688 2.91339 16.8676 3.64562 17.6005C4.37786 18.3334 5.55637 18.3334 7.91339 18.3334H12.0801C14.4371 18.3334 15.6156 18.3334 16.3478 17.6005C17.0801 16.8676 17.0801 15.688 17.0801 13.3287V7.90705C17.0801 5.54783 17.0801 4.36822 16.3478 3.63531C15.813 3.09995 15.04 2.95564 13.7435 2.91675" stroke="#4FD1C5" stroke-width="1.15"/>
<path d="M6.24677 3.12508C6.24677 2.31966 6.89969 1.66675 7.7051 1.66675H12.2884C13.0939 1.66675 13.7468 2.31966 13.7468 3.12508C13.7468 3.9305 13.0939 4.58341 12.2884 4.58341H7.7051C6.89969 4.58341 6.24677 3.9305 6.24677 3.12508Z" stroke="#4FD1C5" stroke-width="1.15"/>
</svg>
