<svg width="16" height="16" viewBox="0 0 16 16" fill="none" xmlns="http://www.w3.org/2000/svg">
<path d="M1.33301 10.6668C1.33301 8.54563 2.82539 7.3335 4.66634 7.3335C6.50729 7.3335 7.99967 8.54563 7.99967 10.6668H1.33301Z" stroke="#1E1E24" stroke-linejoin="round"/>
<path d="M3.33301 5.3335H5.99967" stroke="#1E1E24" stroke-linecap="round" stroke-linejoin="round"/>
<path d="M6.66699 10.6665C6.66699 11.7711 5.77156 12.6665 4.66699 12.6665C3.56243 12.6665 2.66699 11.7711 2.66699 10.6665" stroke="#1E1E24"/>
<path d="M13.3333 12.6667C14.0697 12.6667 14.6667 12.0697 14.6667 11.3333C14.6667 10.597 14.0697 10 13.3333 10C12.597 10 12 10.597 12 11.3333C12 12.0697 12.597 12.6667 13.3333 12.6667Z" stroke="#1E1E24"/>
<path d="M10.6667 5.3335C11.5555 5.75862 13.3333 7.44943 13.3333 10.0002M10.6599 3.3335H11.0244C11.6809 3.3335 12.2831 3.71968 12.5873 4.33576C12.7976 4.76192 12.5873 5.3335 11.9899 5.3335H10.6599M10.6599 3.3335V5.3335M10.6599 3.3335H8.6296M10.6599 5.3335C10.6599 6.60886 10.5184 10.6668 8 10.6668H11.7777" stroke="#1E1E24" stroke-linecap="round" stroke-linejoin="round"/>
</svg>
