<svg width="20" height="22" viewBox="0 0 20 22" fill="none" xmlns="http://www.w3.org/2000/svg">
<path fill-rule="evenodd" clip-rule="evenodd" d="M18.2395 1.96299C17.4223 1.05506 16.3725 0.639324 15.0485 0.441534C13.7678 0.250214 12.1308 0.250225 10.0625 0.250245H9.9375C7.86922 0.250235 6.23221 0.250214 4.95147 0.441534C3.62747 0.639324 2.57769 1.05506 1.76055 1.96299C0.95359 2.85961 0.59338 3.99246 0.42018 5.42379C0.24998 6.83039 0.24999 8.63524 0.25 10.9481C0.24999 13.2609 0.24998 15.1701 0.42018 16.5767C0.59338 18.008 0.95359 19.1409 1.76055 20.0375C2.57769 20.9454 3.62747 21.3611 4.95147 21.5589C6.23221 21.7502 7.86921 21.7502 9.9375 21.7502H10.0625C12.1308 21.7502 13.7678 21.7502 15.0485 21.5589C16.3725 21.3611 17.4223 20.9454 18.2395 20.0375C19.0464 19.1409 19.4066 18.008 19.5798 16.5767C19.75 15.1701 19.75 13.2609 19.75 10.948C19.75 8.63523 19.75 6.83038 19.5798 5.42379C19.4066 3.99246 19.0464 2.8596 18.2395 1.96299ZM10 1.96123C11.289 1.96123 12.3541 1.96194 13.25 2.00002V8.82623C13.25 9.47423 13.2353 9.95473 13.1963 10.2289C13.0492 10.1806 12.8404 10.0703 12.5969 9.90383C12.0648 9.48723 10.9352 8.62799 10.6737 8.52458C10.4908 8.43137 10.2686 8.34839 10 8.34839C9.7314 8.34839 9.5092 8.43137 9.3263 8.52458C9.0564 8.63025 7.93171 9.48813 7.40312 9.90383C7.15961 10.0703 6.96192 10.177 6.81477 10.2253C6.77578 9.95113 6.75 9.47423 6.75 8.82623V2.00002C7.64594 1.96194 8.711 1.96123 10 1.96123Z" fill="#4FD1C5"/>
</svg>
