<svg width="26" height="12" viewBox="0 0 26 12" fill="none" xmlns="http://www.w3.org/2000/svg">
<g clip-path="url(#clip0_20_3189)">
<path d="M11.3896 9.20445C10.5845 10.6108 8.94524 11.2799 7.28771 11.2799H0.637329C7.56041 10.4399 12.3818 7.0799 13 2.3999C13.6181 7.0799 18.4395 10.4399 25.3626 11.2799H18.7122C17.0547 11.2799 15.4154 10.6108 14.6103 9.20445C13.7389 7.6823 13.1837 5.95992 13 4.0799C12.8162 5.95992 12.261 7.6823 11.3896 9.20445Z" fill="white"/>
<path d="M7.5864 8.70749C7.19804 8.91972 6.78953 9.11907 6.36179 9.30476C6.11881 8.49005 6.0294 7.63529 6.10071 6.78382C6.19504 5.65738 6.56772 4.5714 7.18576 3.62213C7.80381 2.67286 8.64811 1.88955 9.64389 1.3416C10.6397 0.793656 11.7562 0.497983 12.8946 0.480777C14.033 0.463569 15.158 0.725359 16.1702 1.24295C17.1823 1.76055 18.0502 2.51796 18.6971 3.44813C19.3439 4.3783 19.7498 5.45249 19.8786 6.57555C19.984 7.49415 19.9014 8.42228 19.6382 9.30476C19.2104 9.11907 18.8019 8.9197 18.4136 8.70747C18.5773 8.0623 18.6232 7.39112 18.5469 6.72612C18.443 5.82048 18.1157 4.95425 17.5941 4.20418C17.0725 3.45411 16.3726 2.84331 15.5564 2.42592C14.7402 2.00853 13.833 1.79743 12.915 1.8113C11.997 1.82518 11.0966 2.06361 10.2936 2.50546C9.49065 2.94732 8.80979 3.57898 8.3114 4.34448C7.81301 5.10999 7.51248 5.9857 7.43642 6.89408C7.38529 7.50464 7.43662 8.11731 7.5864 8.70749Z" fill="white" fill-opacity="0.4"/>
</g>
<defs>
<clipPath id="clip0_20_3189">
<rect width="25.7143" height="12" fill="white" transform="translate(0.142822)"/>
</clipPath>
</defs>
</svg>
