<svg width="20" height="20" viewBox="0 0 20 20" fill="none" xmlns="http://www.w3.org/2000/svg">
<path d="M18.3334 10.0001C18.3334 14.6024 14.6024 18.3334 10 18.3334C5.39765 18.3334 1.66669 14.6024 1.66669 10.0001C1.66669 5.39771 5.39765 1.66675 10 1.66675C14.6024 1.66675 18.3334 5.39771 18.3334 10.0001Z" stroke="#4FD1C5" stroke-width="1.25" stroke-linecap="round" stroke-linejoin="round"/>
<path d="M15.8334 11.6667C13.75 12.0834 12.0834 13.7501 11.6667 15.8334" stroke="#4FD1C5" stroke-width="1.25" stroke-linecap="round" stroke-linejoin="round"/>
<path d="M4.16669 11.6667C6.25002 12.0834 7.91669 13.7501 8.33335 15.8334" stroke="#4FD1C5" stroke-width="1.25" stroke-linecap="round" stroke-linejoin="round"/>
<path d="M15.8334 9.16659C14.0706 8.63267 12.0914 8.33325 10 8.33325C7.90863 8.33325 5.92942 8.63267 4.16669 9.16659" stroke="#4FD1C5" stroke-width="1.25" stroke-linecap="round" stroke-linejoin="round"/>
<path d="M10.0075 11.6667H10" stroke="#4FD1C5" stroke-width="1.25" stroke-linecap="round" stroke-linejoin="round"/>
</svg>
